<?xml version="1.0" encoding="UTF-8" standalone="no"?>
<svg
   xmlns:dc="http://purl.org/dc/elements/1.1/"
   xmlns:cc="http://creativecommons.org/ns#"
   xmlns:rdf="http://www.w3.org/1999/02/22-rdf-syntax-ns#"
   xmlns:svg="http://www.w3.org/2000/svg"
   xmlns="http://www.w3.org/2000/svg"
   xmlns:sodipodi="http://sodipodi.sourceforge.net/DTD/sodipodi-0.dtd"
   xmlns:inkscape="http://www.inkscape.org/namespaces/inkscape"
   aria-hidden="true"
   focusable="false"
   data-prefix="fab"
   data-icon="facebook"
   class="svg-inline--fa fa-facebook fa-w-16"
   role="img"
   viewBox="0 0 512 512"
   version="1.1"
   id="svg3763"
   sodipodi:docname="facebook-brands.svg"
   inkscape:version="0.92.4 (33fec40, 2019-01-16)">
  <metadata
     id="metadata3769">
    <rdf:RDF>
      <cc:Work
         rdf:about="">
        <dc:format>image/svg+xml</dc:format>
        <dc:type
           rdf:resource="http://purl.org/dc/dcmitype/StillImage" />
      </cc:Work>
    </rdf:RDF>
  </metadata>
  <defs
     id="defs3767" />
  <sodipodi:namedview
     pagecolor="#ffffff"
     bordercolor="#666666"
     borderopacity="1"
     objecttolerance="10"
     gridtolerance="10"
     guidetolerance="10"
     inkscape:pageopacity="0"
     inkscape:pageshadow="2"
     inkscape:window-width="2490"
     inkscape:window-height="1016"
     id="namedview3765"
     showgrid="false"
     inkscape:zoom="1.6289062"
     inkscape:cx="256"
     inkscape:cy="256"
     inkscape:window-x="70"
     inkscape:window-y="27"
     inkscape:window-maximized="1"
     inkscape:current-layer="svg3763" />
  <path
     fill="currentColor"
     d="M504 256C504 119 393 8 256 8S8 119 8 256c0 123.78 90.69 226.38 209.25 245V327.69h-63V256h63v-54.64c0-62.15 37-96.48 93.67-96.48 27.14 0 55.52 4.84 55.52 4.84v61h-31.28c-30.8 0-40.41 19.12-40.41 38.73V256h68.78l-11 71.69h-57.78V501C413.31 482.38 504 379.78 504 256z"
     id="path3761" />
  <path
     style="fill:#008000;stroke-width:0.61390889"
     d="M 210.65236,499.59361 C 110.04157,480.84084 30.15663,400.55123 12.284212,300.22062 9.3616768,283.81434 8.6043227,274.69972 8.5996219,255.87722 8.5949266,237.07673 9.3854462,227.63491 12.300404,211.67578 24.387295,145.50113 62.976816,86.863599 118.72998,49.953961 152.18397,27.80679 185.72893,15.40346 227.08489,9.889475 c 6.22848,-0.8304414 12.56387,-1.0657067 28.85372,-1.0714841 18.23679,-0.00647 22.15219,0.1665573 31.0024,1.3700231 58.70622,7.982972 108.02167,33.044281 148.92477,75.681157 32.48531,33.862279 55.13324,78.351019 63.732,125.192699 3.03182,16.51586 3.71413,24.74872 3.71413,44.81535 0,20.07232 -0.68369,28.31754 -3.71608,44.81535 -10.76709,58.57857 -42.0419,110.95921 -88.68175,148.52868 -30.91306,24.90117 -70.63019,43.25983 -108.3184,50.06857 -3.03885,0.549 -6.00863,1.13804 -6.59952,1.30898 -1.01957,0.29496 -1.07434,-4.10372 -1.07434,-86.28571 v -86.59651 l 28.97861,-0.15949 28.97861,-0.15949 5.38368,-34.9928 c 2.96102,-19.24605 5.39116,-35.33813 5.40029,-35.7602 0.0131,-0.60498 -7.26852,-0.76738 -34.40695,-0.76738 h -34.42357 l 0.23022,-27.47242 c 0.22894,-27.32108 0.23874,-27.50003 1.77854,-32.48286 3.71893,-12.0346 11.76417,-19.79969 24.1717,-23.33002 3.05997,-0.87066 7.24252,-1.08802 24.70983,-1.28417 l 21.02638,-0.23609 v -30.84675 -30.84674 l -10.28297,-1.34057 c -17.3029,-2.25573 -21.98251,-2.62159 -38.29274,-2.99382 -10.70556,-0.24432 -17.66838,-0.12082 -21.79377,0.38655 -23.02368,2.83163 -39.76151,10.47624 -53.66478,24.51011 -9.56046,9.65027 -15.41855,19.27225 -19.86141,32.62263 -5.08665,15.28492 -5.89809,23.91446 -5.89809,62.72533 v 30.58882 h -31.61631 -31.61631 v 35.91367 35.91367 h 31.61631 31.61631 v 86.56115 c 0,47.60863 -0.0691,86.53513 -0.15348,86.50333 -0.0844,-0.0318 -2.85171,-0.56074 -6.14956,-1.17543 z"
     id="path3771"
     inkscape:connector-curvature="0" />
  <path
     style="fill:#0000ff;stroke-width:0.61390889;image-rendering:auto"
     d="M 205.40593,498.36106 C 162.6106,489.22563 124.13093,469.6285 90.57299,439.87834 59.099824,411.9764 33.335592,372.30876 20.307602,331.69496 14.966039,315.04303 10.764047,293.99709 9.412966,277.12849 8.44901,265.09324 8.9998378,234.24572 10.351513,224.56787 14.844096,192.40144 24.787554,162.55664 40.316237,134.63022 44.628866,126.87448 56.398852,109.32328 61.880226,102.47437 78.111985,82.192956 95.973277,65.642634 116.87806,51.513224 148.04641,30.446737 178.94569,18.137471 217.12633,11.577575 c 11.7098,-2.0118845 19.2878,-2.4906677 39.42995,-2.4912106 25.17111,-6.783e-4 36.7256,1.3307276 59.16656,6.8176706 50.76,12.411113 94.36979,39.716658 130.29921,81.584694 23.26774,27.113571 42.49658,65.667361 50.95111,102.156881 5.07623,21.90888 6.33134,35.13296 5.89049,62.06374 -0.34062,20.80839 -1.01447,27.42992 -4.4983,44.20144 -8.15219,39.2456 -25.49532,75.66451 -50.86653,106.81478 -6.76262,8.30303 -21.2363,23.18555 -29.51192,30.34557 -28.80664,24.92333 -65.57129,44.07477 -101.88522,53.07406 -9.48982,2.35176 -19.93092,4.29348 -20.426,3.79861 -0.2458,-0.24568 -0.5355,-39.10003 -0.64377,-86.34298 l -0.19687,-85.89627 h 29.0981 29.0981 l 1.00815,-6.59952 c 7.45384,-48.79443 9.63008,-63.75486 9.37202,-64.42736 -0.2474,-0.64471 -6.94059,-0.80046 -34.39838,-0.80046 h -34.09121 l 0.0483,-11.20384 c 0.0266,-6.16211 0.25948,-19.07722 0.51763,-28.70024 0.45521,-16.96915 0.51921,-17.6259 2.12391,-21.79376 3.94401,-10.24373 10.38879,-16.65291 20.56532,-20.45173 3.90099,-1.45621 4.95544,-1.54223 26.31801,-2.14689 l 22.25419,-0.6299 v -30.89893 c 0,-16.99441 -0.0691,-30.90008 -0.15347,-30.90149 -0.0844,-0.001 -5.48526,-0.68269 -12.00188,-1.51398 -25.55666,-3.2601 -54.80807,-3.68202 -67.28077,-0.97044 -19.718,4.28672 -34.40621,12.21192 -46.41938,25.04615 -8.83971,9.44387 -14.20641,18.79097 -18.59444,32.38567 -4.63206,14.35075 -5.32128,22.34258 -5.3341,61.85132 l -0.01,29.92806 h -31.61631 -31.61631 v 35.91367 35.91367 h 31.61631 31.61631 v 84.33573 c 0,46.38465 -0.17267,85.19904 -0.3837,86.25419 -0.47083,2.3542 -0.4499,2.35407 -11.16577,0.0666 z"
     id="path3773"
     inkscape:connector-curvature="0" />
</svg>
