<?xml version="1.0" encoding="UTF-8" standalone="no"?>
<svg
   xmlns:dc="http://purl.org/dc/elements/1.1/"
   xmlns:cc="http://creativecommons.org/ns#"
   xmlns:rdf="http://www.w3.org/1999/02/22-rdf-syntax-ns#"
   xmlns:svg="http://www.w3.org/2000/svg"
   xmlns="http://www.w3.org/2000/svg"
   xmlns:sodipodi="http://sodipodi.sourceforge.net/DTD/sodipodi-0.dtd"
   xmlns:inkscape="http://www.inkscape.org/namespaces/inkscape"
   aria-hidden="true"
   focusable="false"
   data-prefix="fab"
   data-icon="twitter-square"
   class="svg-inline--fa fa-twitter-square fa-w-14"
   role="img"
   viewBox="0 0 448 512"
   version="1.1"
   id="svg3833"
   sodipodi:docname="twitter-square-brands.svg"
   inkscape:version="0.92.4 (33fec40, 2019-01-16)">
  <metadata
     id="metadata3839">
    <rdf:RDF>
      <cc:Work
         rdf:about="">
        <dc:format>image/svg+xml</dc:format>
        <dc:type
           rdf:resource="http://purl.org/dc/dcmitype/StillImage" />
      </cc:Work>
    </rdf:RDF>
  </metadata>
  <defs
     id="defs3837" />
  <sodipodi:namedview
     pagecolor="#ffffff"
     bordercolor="#666666"
     borderopacity="1"
     objecttolerance="10"
     gridtolerance="10"
     guidetolerance="10"
     inkscape:pageopacity="0"
     inkscape:pageshadow="2"
     inkscape:window-width="2490"
     inkscape:window-height="1016"
     id="namedview3835"
     showgrid="false"
     inkscape:zoom="1.6289062"
     inkscape:cx="224"
     inkscape:cy="256"
     inkscape:window-x="70"
     inkscape:window-y="27"
     inkscape:window-maximized="1"
     inkscape:current-layer="svg3833" />
  <path
     fill="currentColor"
     d="M400 32H48C21.5 32 0 53.5 0 80v352c0 26.5 21.5 48 48 48h352c26.5 0 48-21.5 48-48V80c0-26.5-21.5-48-48-48zm-48.9 158.8c.2 2.8.2 5.7.2 8.5 0 86.7-66 186.6-186.6 186.6-37.2 0-71.7-10.8-100.7-29.4 5.3.6 10.4.8 15.8.8 30.7 0 58.9-10.4 81.4-28-28.8-.6-53-19.5-61.3-45.5 10.1 1.5 19.2 1.5 29.6-1.2-30-6.1-52.5-32.5-52.5-64.4v-.8c8.7 4.9 18.9 7.9 29.6 8.3a65.447 65.447 0 0 1-29.2-54.6c0-12.2 3.2-23.4 8.9-33.1 32.3 39.8 80.8 65.8 135.2 68.6-9.3-44.5 24-80.6 64-80.6 18.9 0 35.9 7.9 47.9 20.7 14.8-2.8 29-8.3 41.6-15.8-4.9 15.2-15.2 28-28.8 36.1 13.2-1.4 26-5.1 37.8-10.2-8.9 13.1-20.1 24.7-32.9 34z"
     id="path3831" />
  <path
     style="fill:#00ccff;stroke-width:0.61390889"
     d="M 223.74414 32.417969 C 43.590317 32.422237 42.182761 32.431865 37.003906 33.666016 C 20.306773 37.645039 7.2219737 50.227525 1.8984375 67.423828 L 0.47851562 72.011719 L 0.29492188 252.80859 C 0.16490961 381.56889 0.30768116 434.96822 0.78710938 438.3457 C 2.2159107 448.4113 6.4582717 457.19142 13.503906 464.66016 C 21.605992 473.2488 31.471313 478.05574 44.0625 479.55078 C 45.07545 479.67105 125.61236 479.81073 223.0332 479.86133 C 343.62536 479.92396 401.82355 479.74764 405.36523 479.30859 C 416.84872 477.885 426.54013 472.94215 434.59961 464.39844 C 439.98329 458.6913 443.69229 452.35679 445.97852 444.96094 L 447.40234 440.35742 L 447.57031 258.64062 C 447.68744 132.04859 447.53883 75.624328 447.08203 72.640625 C 444.14718 53.471241 429.2636 37.704561 410.18164 33.458984 L 409.95312 33.378906 L 409.83398 33.378906 C 409.77242 33.365698 409.71204 33.348906 409.65039 33.335938 C 405.8089 32.527853 382.84926 32.414169 223.74414 32.417969 z M 285.63672 126.14453 C 294.61388 126.14453 296.44802 126.32769 301.76758 127.74805 C 312.35977 130.57623 322.51324 136.10868 330.53516 143.42773 L 333.82812 146.43359 L 340.6582 144.71484 C 349.70979 142.43633 358.00128 139.28543 366.97852 134.71289 C 369.9164 133.21648 371.3425 132.50256 372.70117 131.82227 C 374.04017 131.25603 374.96229 130.90905 375.11328 130.94336 C 375.22163 132.5461 370.46222 142.59052 366.91016 147.93359 C 363.47478 153.10114 357.24044 159.57202 351.93945 163.4707 L 347.94727 166.4043 L 351.63086 165.96484 C 357.31199 165.28432 370.96387 161.62098 377.75 158.95703 C 380.23272 157.98243 382.36388 157.28715 383.31836 157.11328 C 383.57005 157.13592 383.7322 157.21346 383.80078 157.35547 C 383.192 158.84334 377.99248 165.52874 372.6875 171.60352 C 367.67491 177.3435 360.63013 183.92413 354.73242 188.37695 L 351.49219 190.82422 L 351.14648 204.47266 C 350.79211 218.46093 349.99367 225.40055 347.27539 238.07422 C 341.43929 265.28436 329.42779 291.43037 312.07031 314.71094 C 308.70005 319.23127 302.87656 325.71876 296.79297 331.94727 C 292.46015 336.27512 287.88838 340.66668 283.95703 344.23438 C 283.69124 344.4679 283.39171 344.75079 283.13281 344.97461 C 283.13152 344.97572 283.1302 344.9774 283.12891 344.97852 C 283.12817 344.97918 283.12769 344.9798 283.12695 344.98047 C 281.81279 346.11646 280.5915 347.12465 279.49805 347.9668 C 253.92843 367.65977 226.65835 379.11358 193.24414 384.19531 C 186.54148 385.21467 181.06606 385.54721 168.37891 385.70703 C 164.15307 385.76025 160.18404 385.77939 156.93164 385.77539 C 154.30995 385.74391 151.75804 385.69918 149.5332 385.61523 C 148.17722 385.45949 145.0174 385.09948 141.98242 384.75391 C 128.68299 383.23953 112.47788 379.34477 99.822266 374.62109 C 88.142153 370.26151 72.889847 362.77495 65.857422 357.94922 L 64.021484 356.68945 C 64.020802 356.68331 64.013683 356.67381 64.013672 356.66797 C 64.013572 356.61253 64.329298 356.56452 64.878906 356.52539 L 72.917969 356.87695 C 102.77875 358.18397 132.18953 349.62795 156.07617 332.68359 L 160.03906 329.87109 L 154.54102 329.08789 C 146.41132 327.92971 140.57619 326.1729 133.60742 322.78906 C 119.71432 316.04298 109.63965 305.9079 103.07227 292.06445 C 101.55947 288.87562 100.13941 285.62291 99.916016 284.83789 C 99.851201 284.61013 99.807408 284.4319 99.777344 284.27344 C 100.13148 284.11598 101.24251 284.00124 102.90234 283.91992 C 107.84837 284.58936 119.29975 284.39405 123.77539 283.53516 L 127.97656 282.72852 L 122.85352 281.04688 C 115.58972 278.66287 112.44559 277.1836 106.72852 273.45703 C 89.404637 262.16475 78.264289 243.24362 77.078125 223.10352 C 76.974855 221.35007 76.942705 219.87184 76.976562 218.8418 C 76.977671 218.8309 76.977371 218.81349 76.978516 218.80273 C 77.064099 217.9981 77.259702 217.58553 77.669922 217.47461 C 78.206178 217.72213 79.675333 218.40157 81.511719 219.25391 C 88.275662 222.39332 98.53937 225.18164 103.33398 225.18164 L 104.4707 225.18164 L 104.83984 225.23633 L 104.77148 225.18164 L 105.25781 225.18164 L 101.97852 222.60742 C 81.38846 206.43456 72.375211 178.28055 79.697266 153.01367 C 81.1369 148.04579 84.55379 139.8999 85.783203 138.30469 C 86.320324 138.59115 88.089371 140.17406 90.400391 142.37109 C 91.104999 143.14242 91.851251 143.96804 92.628906 144.84375 C 123.51106 179.61962 169.15384 202.24251 215.80664 205.89844 L 221.17969 206.32031 L 220.7168 204.24023 C 220.46271 203.09636 220.27257 197.04925 220.29297 190.80273 C 220.32737 180.29724 220.45311 179.0307 221.98633 173.91992 C 224.11652 166.81926 228.84239 157.20781 232.70117 152.12695 C 236.83291 146.68668 243.90924 140.0991 249.71289 136.28906 C 255.47031 132.50937 261.65479 129.84624 269.62891 127.71484 C 274.80837 126.33042 276.71014 126.14453 285.63672 126.14453 z "
     id="path3841" />
</svg>
