<?xml version="1.0" encoding="UTF-8" standalone="no"?>
<svg
   xmlns:dc="http://purl.org/dc/elements/1.1/"
   xmlns:cc="http://creativecommons.org/ns#"
   xmlns:rdf="http://www.w3.org/1999/02/22-rdf-syntax-ns#"
   xmlns:svg="http://www.w3.org/2000/svg"
   xmlns="http://www.w3.org/2000/svg"
   xmlns:sodipodi="http://sodipodi.sourceforge.net/DTD/sodipodi-0.dtd"
   xmlns:inkscape="http://www.inkscape.org/namespaces/inkscape"
   aria-hidden="true"
   focusable="false"
   data-prefix="fab"
   data-icon="youtube"
   class="svg-inline--fa fa-youtube fa-w-18"
   role="img"
   viewBox="0 0 576 512"
   version="1.1"
   id="svg3773"
   sodipodi:docname="youtube-brands.svg"
   inkscape:version="0.92.4 (33fec40, 2019-01-16)">
  <metadata
     id="metadata3779">
    <rdf:RDF>
      <cc:Work
         rdf:about="">
        <dc:format>image/svg+xml</dc:format>
        <dc:type
           rdf:resource="http://purl.org/dc/dcmitype/StillImage" />
      </cc:Work>
    </rdf:RDF>
  </metadata>
  <defs
     id="defs3777" />
  <sodipodi:namedview
     pagecolor="#ffffff"
     bordercolor="#666666"
     borderopacity="1"
     objecttolerance="10"
     gridtolerance="10"
     guidetolerance="10"
     inkscape:pageopacity="0"
     inkscape:pageshadow="2"
     inkscape:window-width="2490"
     inkscape:window-height="1016"
     id="namedview3775"
     showgrid="false"
     inkscape:zoom="1.6289062"
     inkscape:cx="288"
     inkscape:cy="256"
     inkscape:window-x="70"
     inkscape:window-y="27"
     inkscape:window-maximized="1"
     inkscape:current-layer="svg3773" />
  <path
     fill="currentColor"
     d="M549.655 124.083c-6.281-23.65-24.787-42.276-48.284-48.597C458.781 64 288 64 288 64S117.22 64 74.629 75.486c-23.497 6.322-42.003 24.947-48.284 48.597-11.412 42.867-11.412 132.305-11.412 132.305s0 89.438 11.412 132.305c6.281 23.65 24.787 41.5 48.284 47.821C117.22 448 288 448 288 448s170.78 0 213.371-11.486c23.497-6.321 42.003-24.171 48.284-47.821 11.412-42.867 11.412-132.305 11.412-132.305s0-89.438-11.412-132.305zm-317.51 213.508V175.185l142.739 81.205-142.739 81.201z"
     id="path3771" />
  <path
     style="fill:#ff8080;stroke-width:0.61390889"
     d="M 225.62686,447.04066 C 148.35934,444.98137 108.21175,442.45765 83.836108,438.12756 66.463554,435.04149 53.980229,428.69004 43.176729,417.44025 29.147037,402.831 24.358616,388.6252 19.964796,348.57746 13.015838,285.24074 14.094265,198.01782 22.484805,144.75971 26.737686,117.76498 32.301473,105.19567 45.637709,92.454302 56.714591,81.871512 68.019158,76.537401 85.655635,73.571662 150.07194,62.739457 370.42484,61.156518 469.34868,70.815345 c 11.81355,1.153464 23.68319,2.943699 30.09054,4.538396 23.04927,5.736638 41.47362,22.831245 48.83055,45.306309 8.35541,25.52537 13.89654,98.95167 12.03777,159.51409 -1.75429,57.15808 -6.26753,96.59892 -13.15089,114.92449 -6.36732,16.9517 -19.86892,30.81195 -37.10705,38.09276 -16.04471,6.77674 -47.79817,10.01925 -127.87598,13.05807 -15.56729,0.59075 -140.39585,1.22165 -156.54676,0.7912 z m 78.51236,-150.03155 c 38.86572,-22.11606 70.59054,-40.43596 70.49961,-40.71087 -0.13926,-0.42098 -142.07048,-81.45699 -142.66856,-81.45699 -0.11238,0 -0.20432,36.62457 -0.20432,81.38793 0,69.20597 0.12784,81.35823 0.85416,81.18945 0.46979,-0.10916 32.65339,-18.29345 71.51911,-40.40952 z"
     id="path3781"
     inkscape:connector-curvature="0" />
  <path
     style="fill:#d40000;stroke-width:0.61390889"
     d="M 202.91223,446.14274 C 139.72511,443.99385 107.97628,441.8253 86.160975,438.16827 68.227651,435.16199 56.57418,429.74878 45.728304,419.38669 31.564135,405.85432 25.849742,391.97678 21.830188,361.34953 17.475493,328.16865 16.026884,301.87015 16.02042,255.87722 16.01452,213.78305 17.124106,190.91294 20.637149,160.72134 24.875828,124.29353 30.033426,109.36598 43.139177,95.594077 54.756697,83.386052 65.626759,77.67922 83.85175,74.21979 c 21.47308,-4.075975 68.93842,-7.161765 134.10125,-8.718114 33.64829,-0.803656 141.66699,-0.40295 166.98321,0.61944 68.69645,2.774293 100.70146,5.585384 116.84119,10.262495 18.45438,5.347868 34.06009,18.393777 42.739,35.728519 10.0836,20.14039 16.36756,82.63046 15.50641,154.20154 -0.69044,57.38194 -5.03136,103.10232 -11.83704,124.67251 -3.3845,10.72696 -9.09252,19.99826 -17.17893,27.90306 -10.82727,10.58409 -23.48066,16.39457 -42.62698,19.57446 -22.75685,3.77954 -72.82082,6.81463 -127.3861,7.72271 -39.62296,0.65941 -138.20864,0.63217 -158.08153,-0.0437 z m 55.40136,-122.81309 c 31.71235,-17.92889 107.14291,-61.07738 112.11133,-64.13096 2.14828,-1.32034 3.87434,-2.67687 3.83568,-3.01452 -0.084,-0.73401 -137.85674,-79.70833 -141.42031,-81.06522 -1.01981,-0.3883 -1.07392,3.65323 -1.06596,79.61825 0.005,44.01502 0.17904,80.66452 0.38764,81.44333 0.23102,0.86257 0.7061,1.29059 1.21551,1.09511 0.45994,-0.1765 11.68119,-6.45219 24.93611,-13.94599 z"
     id="path3783"
     inkscape:connector-curvature="0" />
</svg>
